<mxfile host="app.diagrams.net" modified="2023-09-10T13:10:01.671Z" agent="Mozilla/5.0 (Windows NT 10.0; Win64; x64) AppleWebKit/537.36 (KHTML, like Gecko) Chrome/116.0.0.0 Safari/537.36" etag="Pi7j_rG43Chf72y6YV6j" version="21.7.4" type="device">
  <diagram id="C5RBs43oDa-KdzZeNtuy" name="Page-1">
    <mxGraphModel dx="1194" dy="520" grid="1" gridSize="10" guides="1" tooltips="1" connect="1" arrows="1" fold="1" page="1" pageScale="1" pageWidth="827" pageHeight="1169" math="0" shadow="0">
      <root>
        <mxCell id="WIyWlLk6GJQsqaUBKTNV-0" />
        <mxCell id="WIyWlLk6GJQsqaUBKTNV-1" parent="WIyWlLk6GJQsqaUBKTNV-0" />
        <mxCell id="GvKz1qbfuoWjC8QLkVfx-0" value="НАЧАЛО" style="ellipse;whiteSpace=wrap;html=1;" parent="WIyWlLk6GJQsqaUBKTNV-1" vertex="1">
          <mxGeometry x="336.5" y="100" width="120" height="50" as="geometry" />
        </mxCell>
        <mxCell id="GvKz1qbfuoWjC8QLkVfx-1" value="ЧТЕНИЕ ДАННЫХ&lt;br&gt;ИЗ ФАЙЛОВ" style="shape=parallelogram;perimeter=parallelogramPerimeter;whiteSpace=wrap;html=1;fixedSize=1;" parent="WIyWlLk6GJQsqaUBKTNV-1" vertex="1">
          <mxGeometry x="321.5" y="190" width="150" height="60" as="geometry" />
        </mxCell>
        <mxCell id="GvKz1qbfuoWjC8QLkVfx-2" value="" style="endArrow=classic;html=1;rounded=0;exitX=0.5;exitY=1;exitDx=0;exitDy=0;" parent="WIyWlLk6GJQsqaUBKTNV-1" source="GvKz1qbfuoWjC8QLkVfx-0" target="GvKz1qbfuoWjC8QLkVfx-1" edge="1">
          <mxGeometry width="50" height="50" relative="1" as="geometry">
            <mxPoint x="390" y="320" as="sourcePoint" />
            <mxPoint x="440" y="270" as="targetPoint" />
          </mxGeometry>
        </mxCell>
        <mxCell id="GvKz1qbfuoWjC8QLkVfx-3" value="ПАРСИНГ ФАЙЛОВ" style="rounded=0;whiteSpace=wrap;html=1;" parent="WIyWlLk6GJQsqaUBKTNV-1" vertex="1">
          <mxGeometry x="322.5" y="300" width="147.5" height="60" as="geometry" />
        </mxCell>
        <mxCell id="GvKz1qbfuoWjC8QLkVfx-4" value="" style="endArrow=classic;html=1;rounded=0;exitX=0.5;exitY=1;exitDx=0;exitDy=0;entryX=0.5;entryY=0;entryDx=0;entryDy=0;" parent="WIyWlLk6GJQsqaUBKTNV-1" source="GvKz1qbfuoWjC8QLkVfx-1" target="GvKz1qbfuoWjC8QLkVfx-3" edge="1">
          <mxGeometry width="50" height="50" relative="1" as="geometry">
            <mxPoint x="390" y="220" as="sourcePoint" />
            <mxPoint x="440" y="170" as="targetPoint" />
          </mxGeometry>
        </mxCell>
        <mxCell id="GvKz1qbfuoWjC8QLkVfx-5" value="ИНИЦИАЛИЗАЦИЯ ПЕРЕМЕННЫХ&lt;br&gt;total_sales = 0&lt;br&gt;total_count = 0&lt;br&gt;" style="rounded=0;whiteSpace=wrap;html=1;" parent="WIyWlLk6GJQsqaUBKTNV-1" vertex="1">
          <mxGeometry x="323" y="390" width="147" height="70" as="geometry" />
        </mxCell>
        <mxCell id="GvKz1qbfuoWjC8QLkVfx-6" value="ЦИКЛ FOR sale in sales" style="strokeWidth=2;html=1;shape=mxgraph.flowchart.loop_limit;whiteSpace=wrap;" parent="WIyWlLk6GJQsqaUBKTNV-1" vertex="1">
          <mxGeometry x="570" y="395" width="100" height="60" as="geometry" />
        </mxCell>
        <mxCell id="GvKz1qbfuoWjC8QLkVfx-7" value="" style="endArrow=classic;html=1;rounded=0;entryX=0;entryY=0.5;entryDx=0;entryDy=0;entryPerimeter=0;exitX=1;exitY=0.5;exitDx=0;exitDy=0;" parent="WIyWlLk6GJQsqaUBKTNV-1" source="GvKz1qbfuoWjC8QLkVfx-5" target="GvKz1qbfuoWjC8QLkVfx-6" edge="1">
          <mxGeometry width="50" height="50" relative="1" as="geometry">
            <mxPoint x="390" y="520" as="sourcePoint" />
            <mxPoint x="440" y="470" as="targetPoint" />
          </mxGeometry>
        </mxCell>
        <mxCell id="GvKz1qbfuoWjC8QLkVfx-8" value="" style="endArrow=classic;html=1;rounded=0;exitX=0.5;exitY=1;exitDx=0;exitDy=0;entryX=0.5;entryY=0;entryDx=0;entryDy=0;" parent="WIyWlLk6GJQsqaUBKTNV-1" source="GvKz1qbfuoWjC8QLkVfx-3" target="GvKz1qbfuoWjC8QLkVfx-5" edge="1">
          <mxGeometry width="50" height="50" relative="1" as="geometry">
            <mxPoint x="390" y="520" as="sourcePoint" />
            <mxPoint x="440" y="470" as="targetPoint" />
          </mxGeometry>
        </mxCell>
        <mxCell id="GvKz1qbfuoWjC8QLkVfx-11" value="sale_price_sale = sale[2]&lt;br&gt;total_sales += sale_price_sale&lt;br&gt;total_count +=1" style="rounded=0;whiteSpace=wrap;html=1;" parent="WIyWlLk6GJQsqaUBKTNV-1" vertex="1">
          <mxGeometry x="530" y="510" width="180" height="60" as="geometry" />
        </mxCell>
        <mxCell id="GvKz1qbfuoWjC8QLkVfx-12" value="" style="endArrow=classic;html=1;rounded=0;entryX=0.5;entryY=0;entryDx=0;entryDy=0;exitX=0.5;exitY=1;exitDx=0;exitDy=0;exitPerimeter=0;" parent="WIyWlLk6GJQsqaUBKTNV-1" source="GvKz1qbfuoWjC8QLkVfx-6" target="GvKz1qbfuoWjC8QLkVfx-11" edge="1">
          <mxGeometry width="50" height="50" relative="1" as="geometry">
            <mxPoint x="390" y="420" as="sourcePoint" />
            <mxPoint x="440" y="370" as="targetPoint" />
          </mxGeometry>
        </mxCell>
        <mxCell id="GvKz1qbfuoWjC8QLkVfx-14" value="" style="strokeWidth=2;html=1;shape=mxgraph.flowchart.loop_limit;whiteSpace=wrap;rotation=-180;" parent="WIyWlLk6GJQsqaUBKTNV-1" vertex="1">
          <mxGeometry x="570" y="640" width="100" height="60" as="geometry" />
        </mxCell>
        <mxCell id="GvKz1qbfuoWjC8QLkVfx-15" value="КОНЕЦ ЦИКЛА" style="text;html=1;strokeColor=none;fillColor=none;align=center;verticalAlign=middle;whiteSpace=wrap;rounded=0;" parent="WIyWlLk6GJQsqaUBKTNV-1" vertex="1">
          <mxGeometry x="590" y="655" width="60" height="30" as="geometry" />
        </mxCell>
        <mxCell id="GvKz1qbfuoWjC8QLkVfx-16" value="" style="endArrow=classic;html=1;rounded=0;entryX=0.5;entryY=1;entryDx=0;entryDy=0;entryPerimeter=0;exitX=0.5;exitY=1;exitDx=0;exitDy=0;" parent="WIyWlLk6GJQsqaUBKTNV-1" source="GvKz1qbfuoWjC8QLkVfx-11" target="GvKz1qbfuoWjC8QLkVfx-14" edge="1">
          <mxGeometry width="50" height="50" relative="1" as="geometry">
            <mxPoint x="390" y="520" as="sourcePoint" />
            <mxPoint x="440" y="470" as="targetPoint" />
          </mxGeometry>
        </mxCell>
        <mxCell id="GvKz1qbfuoWjC8QLkVfx-17" value="ИНИЦИАЛИЗАЦИЯ ПЕРЕМЕННОЙ&lt;br style=&quot;border-color: var(--border-color);&quot;&gt;average_sum_price = total_sales / total_count&amp;nbsp;" style="rounded=0;whiteSpace=wrap;html=1;" parent="WIyWlLk6GJQsqaUBKTNV-1" vertex="1">
          <mxGeometry x="321.5" y="625" width="148.5" height="90" as="geometry" />
        </mxCell>
        <mxCell id="GvKz1qbfuoWjC8QLkVfx-18" value="" style="endArrow=classic;html=1;rounded=0;entryX=1;entryY=0.5;entryDx=0;entryDy=0;exitX=1;exitY=0.5;exitDx=0;exitDy=0;exitPerimeter=0;" parent="WIyWlLk6GJQsqaUBKTNV-1" source="GvKz1qbfuoWjC8QLkVfx-14" target="GvKz1qbfuoWjC8QLkVfx-17" edge="1">
          <mxGeometry width="50" height="50" relative="1" as="geometry">
            <mxPoint x="560" y="670" as="sourcePoint" />
            <mxPoint x="440" y="570" as="targetPoint" />
          </mxGeometry>
        </mxCell>
        <mxCell id="GvKz1qbfuoWjC8QLkVfx-19" value="ВЫВОД average_sum_price В&lt;br&gt;&amp;nbsp;ФАЙЛ" style="shape=parallelogram;perimeter=parallelogramPerimeter;whiteSpace=wrap;html=1;fixedSize=1;" parent="WIyWlLk6GJQsqaUBKTNV-1" vertex="1">
          <mxGeometry x="320" y="780" width="150" height="60" as="geometry" />
        </mxCell>
        <mxCell id="GvKz1qbfuoWjC8QLkVfx-20" value="" style="endArrow=classic;html=1;rounded=0;entryX=0.5;entryY=0;entryDx=0;entryDy=0;exitX=0.5;exitY=1;exitDx=0;exitDy=0;" parent="WIyWlLk6GJQsqaUBKTNV-1" source="GvKz1qbfuoWjC8QLkVfx-17" target="GvKz1qbfuoWjC8QLkVfx-19" edge="1">
          <mxGeometry width="50" height="50" relative="1" as="geometry">
            <mxPoint x="390" y="620" as="sourcePoint" />
            <mxPoint x="440" y="570" as="targetPoint" />
          </mxGeometry>
        </mxCell>
        <mxCell id="GvKz1qbfuoWjC8QLkVfx-21" value="КОНЕЦ" style="ellipse;whiteSpace=wrap;html=1;" parent="WIyWlLk6GJQsqaUBKTNV-1" vertex="1">
          <mxGeometry x="335" y="920" width="120" height="50" as="geometry" />
        </mxCell>
        <mxCell id="GvKz1qbfuoWjC8QLkVfx-22" value="" style="endArrow=classic;html=1;rounded=0;exitX=0.5;exitY=1;exitDx=0;exitDy=0;entryX=0.5;entryY=0;entryDx=0;entryDy=0;" parent="WIyWlLk6GJQsqaUBKTNV-1" source="GvKz1qbfuoWjC8QLkVfx-19" target="GvKz1qbfuoWjC8QLkVfx-21" edge="1">
          <mxGeometry width="50" height="50" relative="1" as="geometry">
            <mxPoint x="390" y="920" as="sourcePoint" />
            <mxPoint x="440" y="870" as="targetPoint" />
          </mxGeometry>
        </mxCell>
        <mxCell id="Bxdvt80Dk8JTlLXgR1JV-0" value="Блок-схема по определению&amp;nbsp;средней суммы сделки" style="text;html=1;strokeColor=none;fillColor=none;align=center;verticalAlign=middle;whiteSpace=wrap;rounded=0;" vertex="1" parent="WIyWlLk6GJQsqaUBKTNV-1">
          <mxGeometry x="40" y="30" width="190" height="100" as="geometry" />
        </mxCell>
      </root>
    </mxGraphModel>
  </diagram>
</mxfile>
